<svg width="25" height="24" viewBox="0 0 25 24" fill="none" xmlns="http://www.w3.org/2000/svg">
<g clip-path="url(#clip0_2887_19154)">
<path d="M24.2135 12.2762C24.2135 11.4605 24.1474 10.6403 24.0063 9.83783H12.6875V14.4588H19.1692C18.9003 15.9492 18.036 17.2676 16.7705 18.1053V21.1037H20.6375C22.9083 19.0137 24.2135 15.9271 24.2135 12.2762Z" fill="#4285F4"/>
<path d="M12.6874 24.0008C15.9238 24.0008 18.6532 22.9382 20.6418 21.1039L16.7748 18.1055C15.6989 18.8375 14.31 19.252 12.6918 19.252C9.56115 19.252 6.90673 17.1399 5.95431 14.3003H1.96387V17.3912C4.00098 21.4434 8.15016 24.0008 12.6874 24.0008Z" fill="#34A853"/>
<path d="M5.95004 14.3004C5.44738 12.81 5.44738 11.1962 5.95004 9.70587V6.61493H1.964C0.261999 10.0057 0.261999 14.0006 1.964 17.3913L5.95004 14.3004Z" fill="#FBBC04"/>
<path d="M12.6874 4.74966C14.3982 4.7232 16.0517 5.36697 17.2907 6.54867L20.7168 3.12262C18.5474 1.0855 15.6681 -0.034466 12.6874 0.000808666C8.15016 0.000808666 4.00098 2.55822 1.96387 6.61481L5.9499 9.70575C6.89791 6.86173 9.55674 4.74966 12.6874 4.74966Z" fill="#EA4335"/>
</g>
<defs>
<clipPath id="clip0_2887_19154">
<rect width="24" height="24" fill="white" transform="translate(0.5)"/>
</clipPath>
</defs>
</svg>
