<svg width="28" height="28" viewBox="0 0 28 28" fill="none" xmlns="http://www.w3.org/2000/svg">
<path d="M26.8333 21C26.8333 21.875 26.5883 22.7033 26.1567 23.4033C25.9117 23.8233 25.5967 24.1967 25.235 24.5C24.4183 25.235 23.345 25.6667 22.1667 25.6667C20.7433 25.6667 19.4717 25.025 18.6317 24.0217C18.6083 23.9867 18.5733 23.9633 18.55 23.9283C18.41 23.765 18.2817 23.59 18.1767 23.4033C17.745 22.7033 17.5 21.875 17.5 21C17.5 19.53 18.1767 18.2117 19.25 17.36C20.055 16.7183 21.07 16.3333 22.1667 16.3333C23.3333 16.3333 24.3833 16.7533 25.2 17.465C25.34 17.57 25.4683 17.6984 25.585 17.8267C26.355 18.6667 26.8333 19.775 26.8333 21Z" stroke="#103646" stroke-width="1.5" stroke-miterlimit="10" stroke-linecap="round" stroke-linejoin="round"/>
<path d="M23.9044 20.9767H20.4277" stroke="#103646" stroke-width="1.5" stroke-miterlimit="10" stroke-linecap="round" stroke-linejoin="round"/>
<path d="M22.166 19.2734V22.7617" stroke="#103646" stroke-width="1.5" stroke-miterlimit="10" stroke-linecap="round" stroke-linejoin="round"/>
<path d="M25.2124 10.6983V17.3017C25.2124 17.36 25.2124 17.4066 25.2007 17.465C24.3841 16.7533 23.3341 16.3334 22.1674 16.3334C21.0707 16.3334 20.0557 16.7184 19.2507 17.36C18.1774 18.2117 17.5007 19.53 17.5007 21C17.5007 21.875 17.7457 22.7033 18.1774 23.4033C18.2824 23.59 18.4107 23.765 18.5507 23.9284L16.4157 25.1067C15.0857 25.8534 12.9157 25.8534 11.5857 25.1067L5.35573 21.6533C3.94406 20.8717 2.78906 18.9117 2.78906 17.3017V10.6983C2.78906 9.08833 3.94406 7.12835 5.35573 6.34669L11.5857 2.89333C12.9157 2.14666 15.0857 2.14666 16.4157 2.89333L22.6457 6.34669C24.0574 7.12835 25.2124 9.08833 25.2124 10.6983Z" stroke="#103646" stroke-width="1.5" stroke-linecap="round" stroke-linejoin="round"/>
<path d="M3.69922 8.67993L14.0009 14.6416L24.2326 8.71489" stroke="#103646" stroke-width="1.5" stroke-linecap="round" stroke-linejoin="round"/>
<path d="M14 25.2116V14.6299" stroke="#103646" stroke-width="1.5" stroke-linecap="round" stroke-linejoin="round"/>
</svg>
