<svg width="28" height="28" viewBox="0 0 28 28" fill="none" xmlns="http://www.w3.org/2000/svg">
<path d="M11.5857 2.89333L5.35571 6.35837C3.94404 7.14003 2.78906 9.10001 2.78906 10.71V17.3017C2.78906 18.9117 3.94404 20.8717 5.35571 21.6533L11.5857 25.1184C12.9157 25.8534 15.0974 25.8534 16.4274 25.1184L22.6574 21.6533C24.0691 20.8717 25.224 18.9117 25.224 17.3017V10.71C25.224 9.10001 24.0691 7.14003 22.6574 6.35837L16.4274 2.89333C15.0857 2.14666 12.9157 2.14666 11.5857 2.89333Z" fill="white" stroke="#585858" stroke-width="1.5" stroke-linecap="round" stroke-linejoin="round"/>
<path d="M3.69922 8.67993L14.0009 14.6416L24.2325 8.71489" fill="white"/>
<path d="M3.69922 8.67993L14.0009 14.6416L24.2325 8.71489" stroke="#585858" stroke-width="1.5" stroke-linecap="round" stroke-linejoin="round"/>
<path d="M14 25.2116V14.6299" stroke="#585858" stroke-width="1.5" stroke-linecap="round" stroke-linejoin="round"/>
<path d="M19.8334 11.1768L8.76172 4.78345" stroke="#585858" stroke-width="1.5" stroke-linecap="round" stroke-linejoin="round"/>
</svg>
