<svg width="29" height="28" viewBox="0 0 29 28" fill="none" xmlns="http://www.w3.org/2000/svg">
<path d="M18.4303 2.33333V14C18.4303 15.2833 17.3803 16.3333 16.097 16.3333H3.26367V7C3.26367 4.42166 5.35201 2.33333 7.93034 2.33333H18.4303Z" stroke="#103646" stroke-width="1.5" stroke-linecap="round" stroke-linejoin="round"/>
<path d="M26.597 16.3333V19.8333C26.597 21.77 25.0337 23.3333 23.097 23.3333H21.9303C21.9303 22.05 20.8803 21 19.597 21C18.3137 21 17.2637 22.05 17.2637 23.3333H12.597C12.597 22.05 11.547 21 10.2637 21C8.98034 21 7.93034 22.05 7.93034 23.3333H6.76367C4.82701 23.3333 3.26367 21.77 3.26367 19.8333V16.3333H16.097C17.3803 16.3333 18.4303 15.2833 18.4303 14V5.83333H20.577C21.417 5.83333 22.187 6.28834 22.607 7.01167L24.602 10.5H23.097C22.4553 10.5 21.9303 11.025 21.9303 11.6667V15.1667C21.9303 15.8083 22.4553 16.3333 23.097 16.3333H26.597Z" stroke="#103646" stroke-width="1.5" stroke-linecap="round" stroke-linejoin="round"/>
<path d="M10.263 25.6667C11.5517 25.6667 12.5964 24.622 12.5964 23.3333C12.5964 22.0447 11.5517 21 10.263 21C8.97436 21 7.92969 22.0447 7.92969 23.3333C7.92969 24.622 8.97436 25.6667 10.263 25.6667Z" stroke="#103646" stroke-width="1.5" stroke-linecap="round" stroke-linejoin="round"/>
<path d="M19.597 25.6667C20.8857 25.6667 21.9303 24.622 21.9303 23.3333C21.9303 22.0447 20.8857 21 19.597 21C18.3083 21 17.2637 22.0447 17.2637 23.3333C17.2637 24.622 18.3083 25.6667 19.597 25.6667Z" stroke="#103646" stroke-width="1.5" stroke-linecap="round" stroke-linejoin="round"/>
<path d="M26.5964 14V16.3333H23.0964C22.4547 16.3333 21.9297 15.8083 21.9297 15.1667V11.6667C21.9297 11.025 22.4547 10.5 23.0964 10.5H24.6014L26.5964 14Z" stroke="#103646" stroke-width="1.5" stroke-linecap="round" stroke-linejoin="round"/>
</svg>
