<svg width="28" height="28" viewBox="0 0 28 28" fill="none" xmlns="http://www.w3.org/2000/svg">
<path d="M17.5007 2.33333V14C17.5007 15.2833 16.4507 16.3333 15.1673 16.3333H2.33398V7C2.33398 4.42166 4.42232 2.33333 7.00065 2.33333H17.5007Z" fill="white" stroke="#585858" stroke-width="1.5" stroke-linecap="round" stroke-linejoin="round"/>
<path d="M25.6673 16.3333V19.8333C25.6673 21.77 24.104 23.3333 22.1673 23.3333H21.0007C21.0007 22.05 19.9507 21 18.6673 21C17.384 21 16.334 22.05 16.334 23.3333H11.6673C11.6673 22.05 10.6173 21 9.33398 21C8.05065 21 7.00065 22.05 7.00065 23.3333H5.83398C3.89732 23.3333 2.33398 21.77 2.33398 19.8333V16.3333H15.1673C16.4507 16.3333 17.5007 15.2833 17.5007 14V5.83333H19.6473C20.4873 5.83333 21.2573 6.28834 21.6773 7.01167L23.6723 10.5H22.1673C21.5257 10.5 21.0007 11.025 21.0007 11.6667V15.1667C21.0007 15.8083 21.5257 16.3333 22.1673 16.3333H25.6673Z" fill="white" stroke="#585858" stroke-width="1.5" stroke-linecap="round" stroke-linejoin="round"/>
<path d="M9.33333 25.6667C10.622 25.6667 11.6667 24.622 11.6667 23.3333C11.6667 22.0447 10.622 21 9.33333 21C8.04467 21 7 22.0447 7 23.3333C7 24.622 8.04467 25.6667 9.33333 25.6667Z" stroke="#585858" stroke-width="1.5" stroke-linecap="round" stroke-linejoin="round"/>
<path d="M18.6673 25.6667C19.956 25.6667 21.0007 24.622 21.0007 23.3333C21.0007 22.0447 19.956 21 18.6673 21C17.3787 21 16.334 22.0447 16.334 23.3333C16.334 24.622 17.3787 25.6667 18.6673 25.6667Z" stroke="#585858" stroke-width="1.5" stroke-linecap="round" stroke-linejoin="round"/>
<path d="M25.6667 14V16.3333H22.1667C21.525 16.3333 21 15.8083 21 15.1667V11.6667C21 11.025 21.525 10.5 22.1667 10.5H23.6717L25.6667 14Z" stroke="#585858" stroke-width="1.5" stroke-linecap="round" stroke-linejoin="round"/>
</svg>
