<svg width="29" height="28" viewBox="0 0 29 28" fill="none" xmlns="http://www.w3.org/2000/svg">
<path d="M12.5154 2.89333L6.2854 6.35837C4.87373 7.14003 3.71875 9.10001 3.71875 10.71V17.3017C3.71875 18.9117 4.87373 20.8717 6.2854 21.6533L12.5154 25.1184C13.8454 25.8534 16.0271 25.8534 17.3571 25.1184L23.5871 21.6533C24.9987 20.8717 26.1537 18.9117 26.1537 17.3017V10.71C26.1537 9.10001 24.9987 7.14003 23.5871 6.35837L17.3571 2.89333C16.0154 2.14666 13.8454 2.14666 12.5154 2.89333Z" stroke="#103646" stroke-width="1.5" stroke-linecap="round" stroke-linejoin="round"/>
<path d="M4.62891 8.67993L14.9306 14.6416L25.1622 8.71489" stroke="#103646" stroke-width="1.5" stroke-linecap="round" stroke-linejoin="round"/>
<path d="M14.9297 25.2116V14.6299" stroke="#103646" stroke-width="1.5" stroke-linecap="round" stroke-linejoin="round"/>
<path d="M20.7631 11.1768L9.69141 4.78345" stroke="#103646" stroke-width="1.5" stroke-linecap="round" stroke-linejoin="round"/>
</svg>
