<svg width="41" height="41" viewBox="0 0 41 41" fill="none" xmlns="http://www.w3.org/2000/svg">
<circle cx="20.5" cy="20.5" r="20.5" fill="#FFD285"/>
<path d="M23.125 11.75V20.5C23.125 21.4625 22.3375 22.25 21.375 22.25H11.75V15.25C11.75 13.3162 13.3162 11.75 15.25 11.75H23.125Z" stroke="#E04462" stroke-width="1.75" stroke-linecap="round" stroke-linejoin="round"/>
<path d="M29.25 22.25V24.875C29.25 26.3275 28.0775 27.5 26.625 27.5H25.75C25.75 26.5375 24.9625 25.75 24 25.75C23.0375 25.75 22.25 26.5375 22.25 27.5H18.75C18.75 26.5375 17.9625 25.75 17 25.75C16.0375 25.75 15.25 26.5375 15.25 27.5H14.375C12.9225 27.5 11.75 26.3275 11.75 24.875V22.25H21.375C22.3375 22.25 23.125 21.4625 23.125 20.5V14.375H24.735C25.365 14.375 25.9425 14.7163 26.2575 15.2588L27.7538 17.875H26.625C26.1437 17.875 25.75 18.2687 25.75 18.75V21.375C25.75 21.8563 26.1437 22.25 26.625 22.25H29.25Z" stroke="#E04462" stroke-width="1.75" stroke-linecap="round" stroke-linejoin="round"/>
<path d="M17 29.25C17.9665 29.25 18.75 28.4665 18.75 27.5C18.75 26.5335 17.9665 25.75 17 25.75C16.0335 25.75 15.25 26.5335 15.25 27.5C15.25 28.4665 16.0335 29.25 17 29.25Z" stroke="#E04462" stroke-width="1.75" stroke-linecap="round" stroke-linejoin="round"/>
<path d="M24 29.25C24.9665 29.25 25.75 28.4665 25.75 27.5C25.75 26.5335 24.9665 25.75 24 25.75C23.0335 25.75 22.25 26.5335 22.25 27.5C22.25 28.4665 23.0335 29.25 24 29.25Z" stroke="#E04462" stroke-width="1.75" stroke-linecap="round" stroke-linejoin="round"/>
<path d="M29.25 20.5V22.25H26.625C26.1437 22.25 25.75 21.8563 25.75 21.375V18.75C25.75 18.2687 26.1437 17.875 26.625 17.875H27.7538L29.25 20.5Z" stroke="#E04462" stroke-width="1.75" stroke-linecap="round" stroke-linejoin="round"/>
</svg>
