<svg width="54" height="47" viewBox="0 0 54 47" fill="none" xmlns="http://www.w3.org/2000/svg">
<path d="M20.75 25C26.9632 25 32 19.9632 32 13.75C32 7.5368 26.9632 2.5 20.75 2.5C14.5368 2.5 9.5 7.5368 9.5 13.75C9.5 19.9632 14.5368 25 20.75 25Z" fill="#FFEDEF"/>
<path d="M37 3.6694C40.7043 5.51028 43.25 9.33285 43.25 13.75C43.25 18.1672 40.7043 21.9897 37 23.8306M42 36.916C45.7786 38.6258 49.1813 41.4125 52 45M2 45C6.86623 38.8064 13.4729 35 20.75 35C28.0271 35 34.6338 38.8064 39.5 45M32 13.75C32 19.9632 26.9632 25 20.75 25C14.5368 25 9.5 19.9632 9.5 13.75C9.5 7.5368 14.5368 2.5 20.75 2.5C26.9632 2.5 32 7.5368 32 13.75Z" stroke="#E04462" stroke-width="4" stroke-linecap="round" stroke-linejoin="round"/>
</svg>
