<svg width="88" height="88" viewBox="0 0 88 88" fill="none" xmlns="http://www.w3.org/2000/svg">
<path d="M70.5349 0H17.4231C7.92486 0 0.225037 7.69982 0.225037 17.198V70.3099C0.225037 79.8081 7.92486 87.5079 17.4231 87.5079H70.5349C80.0331 87.5079 87.733 79.8081 87.733 70.3099V17.198C87.733 7.69982 80.0331 0 70.5349 0Z" fill="#103646"/>
<g style="mix-blend-mode:multiply" opacity="0.9">
<path d="M43.979 75.8874L80.3724 67.0975L87.733 60.4213V37.832L76.4383 34.1959V62.8795C76.4383 63.7827 75.8703 64.5881 75.0184 64.8907L43.979 75.8828V75.8874Z" fill="#103646"/>
</g>
<path d="M76.4383 25.1685L43.979 36.6634V47.2271L62.5458 40.6486C63.7796 40.211 65.1297 40.8582 65.5674 42.0919C66.005 43.3257 65.3578 44.6758 64.1287 45.1134L43.979 52.2506V75.8874L74.9951 64.9C75.861 64.5927 76.4383 63.778 76.4383 62.8608V25.1685ZM64.1287 58.1866L58.6583 60.1233C58.3976 60.2164 58.1322 60.2583 57.8669 60.2583C56.8938 60.2583 55.9813 59.6531 55.6368 58.68C55.1992 57.4463 55.8463 56.0962 57.0754 55.6585L62.5458 53.7218C63.7796 53.2841 65.1297 53.9313 65.5674 55.165C66.005 56.3988 65.3578 57.7489 64.1287 58.1866Z" fill="#F9B035"/>
<path d="M23.7594 45.0902C22.4884 44.6386 21.8413 43.2139 22.3627 41.9522C22.8516 40.7697 24.2576 40.2483 25.4634 40.6766L43.9743 47.2318V36.668L11.5197 25.1685V47.2737C11.5197 48.1908 12.097 49.0056 12.9629 49.3128L31.6229 55.9239C32.8194 56.3476 33.5689 57.6232 33.2151 58.843C32.9125 59.8952 31.9581 60.5609 30.9385 60.5609C30.6778 60.5609 30.4077 60.519 30.147 60.4259L14.4062 54.8484C13.0002 54.3503 11.5197 55.3932 11.5197 56.8876V62.8608C11.5197 63.778 12.097 64.5927 12.9629 64.9L43.979 75.8874V52.2506L23.7641 45.0902H23.7594Z" fill="#E04462"/>
<path d="M62.8857 29.9732L76.4383 25.1685L44.7705 13.8273C44.3235 13.669 43.8393 13.6644 43.3877 13.8273C41.5208 14.4931 36.1249 16.4112 30.2914 18.4876L62.8857 29.9732Z" fill="#ECCACF"/>
<path d="M30.2913 18.4923C23.0332 21.0762 11.5895 25.1499 11.5197 25.1732L43.979 36.6681L62.8857 29.9779L30.2913 18.4923Z" fill="#ECCACF"/>
<path d="M25.482 20.201L30.2913 18.4923L62.8857 29.9732L58.0671 31.6818L25.482 20.201Z" fill="#EFECEA"/>
<path d="M58.0671 31.6818L62.8857 29.9732V35.8207L58.0671 37.5293V31.6818Z" fill="#EFECEA"/>
</svg>
