<svg width="41" height="41" viewBox="0 0 41 41" fill="none" xmlns="http://www.w3.org/2000/svg">
<circle cx="20.5" cy="20.5" r="20.5" fill="#FFD285"/>
<path d="M11.833 17.6791C11.833 17.358 11.833 17.1974 11.8464 17.0622C11.9756 15.7578 13.0075 14.7259 14.3119 14.5967C14.4471 14.5833 14.6163 14.5833 14.9548 14.5833C15.0852 14.5833 15.1504 14.5833 15.2058 14.58C15.9127 14.5371 16.5318 14.091 16.796 13.4338C16.8167 13.3823 16.836 13.3243 16.8747 13.2083C16.9133 13.0923 16.9327 13.0343 16.9534 12.9828C17.2176 12.3257 17.8366 11.8795 18.5436 11.8367C18.5989 11.8333 18.6601 11.8333 18.7824 11.8333H23.217C23.3393 11.8333 23.4004 11.8333 23.4558 11.8367C24.1627 11.8795 24.7818 12.3257 25.046 12.9828C25.0667 13.0343 25.086 13.0923 25.1247 13.2083C25.1633 13.3243 25.1827 13.3823 25.2034 13.4338C25.4676 14.091 26.0866 14.5371 26.7936 14.58C26.8489 14.5833 26.9141 14.5833 27.0446 14.5833C27.383 14.5833 27.5522 14.5833 27.6875 14.5967C28.9918 14.7259 30.0237 15.7578 30.1529 17.0622C30.1663 17.1974 30.1663 17.358 30.1663 17.6791V24.85C30.1663 26.3901 30.1663 27.1602 29.8666 27.7485C29.603 28.2659 29.1823 28.6866 28.6648 28.9502C28.0766 29.25 27.3065 29.25 25.7663 29.25H16.233C14.6929 29.25 13.9228 29.25 13.3345 28.9502C12.8171 28.6866 12.3964 28.2659 12.1327 27.7485C11.833 27.1602 11.833 26.3901 11.833 24.85V17.6791Z" stroke="#E04462" stroke-width="1.75" stroke-linecap="round" stroke-linejoin="round"/>
<path d="M20.9997 25.125C23.0247 25.125 24.6663 23.4834 24.6663 21.4583C24.6663 19.4333 23.0247 17.7916 20.9997 17.7916C18.9746 17.7916 17.333 19.4333 17.333 21.4583C17.333 23.4834 18.9746 25.125 20.9997 25.125Z" stroke="#E04462" stroke-width="1.75" stroke-linecap="round" stroke-linejoin="round"/>
</svg>
