<svg width="60" height="60" viewBox="0 0 60 60" fill="none" xmlns="http://www.w3.org/2000/svg">
<path d="M24.8265 6.2L11.4765 13.6251C8.45152 15.3001 5.97656 19.5 5.97656 22.95V37.0751C5.97656 40.5251 8.45152 44.725 11.4765 46.4L24.8265 53.8251C27.6765 55.4001 32.3515 55.4001 35.2015 53.8251L48.5516 46.4C51.5766 44.725 54.0515 40.5251 54.0515 37.0751V22.95C54.0515 19.5 51.5766 15.3001 48.5516 13.6251L35.2015 6.2C32.3265 4.6 27.6765 4.6 24.8265 6.2Z" fill="#FFEDEF" stroke="#E04462" stroke-width="4" stroke-linecap="round" stroke-linejoin="round"/>
<path d="M7.9248 18.5999L29.9998 31.3748L51.9247 18.6748" fill="#FFEDEF"/>
<path d="M7.9248 18.5999L29.9998 31.3748L51.9247 18.6748" stroke="#E04462" stroke-width="4" stroke-linecap="round" stroke-linejoin="round"/>
<path d="M30 54.0249V31.3499" stroke="#E04462" stroke-width="4" stroke-linecap="round" stroke-linejoin="round"/>
<path d="M42.4994 23.9503L18.7744 10.2502" stroke="#E04462" stroke-width="4" stroke-linecap="round" stroke-linejoin="round"/>
</svg>
