<svg width="422" height="71" viewBox="0 0 422 71" fill="none" xmlns="http://www.w3.org/2000/svg">
<path d="M37.0472 70.9539L78.576 60.9261L86.9731 53.3079L104.079 33.403L86.9731 27.5296L74.084 23.3804V56.1121C74.084 57.1404 73.4349 58.0595 72.4638 58.4075L37.042 70.9539H37.0472Z" fill="url(#paint0_linear_4067_1061)"/>
<path d="M74.084 13.0774L37.042 26.195V38.2481L58.2296 30.7441C59.6369 30.2456 61.1793 30.983 61.6778 32.3903C62.1763 33.7976 61.4389 35.34 60.0368 35.8385L37.042 43.9812V70.9539L72.4378 58.4179C73.4244 58.0699 74.084 57.1352 74.084 56.0914V13.0826V13.0774ZM60.0368 50.7529L53.7896 52.9652C53.4936 53.069 53.1872 53.121 52.886 53.121C51.7747 53.121 50.7309 52.4303 50.3414 51.319C49.8428 49.9116 50.5803 48.3693 51.9824 47.8708L58.2296 45.6585C59.6369 45.16 61.1793 45.8974 61.6778 47.3047C62.1763 48.7121 61.4389 50.2544 60.0368 50.7529Z" fill="#F9B035"/>
<path d="M13.9745 35.8126C12.5204 35.2984 11.783 33.6678 12.3802 32.2293C12.9411 30.8792 14.5405 30.282 15.9167 30.7701L37.042 38.2533V26.2002L0 13.0826V38.3104C0 39.3542 0.659539 40.289 1.64622 40.6369L22.9429 48.1772C24.3086 48.6601 25.1603 50.1142 24.7604 51.5059C24.4177 52.7055 23.3272 53.4689 22.1639 53.4689C21.8627 53.4689 21.5615 53.417 21.2603 53.3131L3.2976 46.9516C1.69295 46.3804 0.00519812 47.5748 0.00519812 49.2781V56.0914C0.00519812 57.1352 0.664706 58.0699 1.65138 58.4179L37.0472 70.9539V43.9812L13.9797 35.8126H13.9745Z" fill="#E04462"/>
<path d="M58.6243 18.5612L74.0892 13.0774L37.9508 0.136317C37.4419 -0.0454391 36.8862 -0.0454391 36.3773 0.136317C34.2482 0.894502 28.0892 3.08597 21.4317 5.45399L58.6243 18.5612Z" fill="#EFECEA"/>
<path d="M21.4265 5.45399C13.1436 8.40364 0.0831142 13.0514 0.00521851 13.0774L37.0472 26.195L58.6243 18.556L21.4317 5.4488L21.4265 5.45399Z" fill="#EFECEA"/>
<path opacity="0.7" d="M15.9374 7.4118L21.4265 5.45402L58.6242 18.5613L53.1248 20.5087L15.9374 7.4118Z" fill="#E04462"/>
<path opacity="0.7" d="M53.1249 20.5086L58.6243 18.5612V25.2291L53.1249 27.1817V20.5086Z" fill="#E04462"/>
<path d="M93.7241 51.4332V43.5554H117.358V39.619H93.7241V19.927H125.235V27.8049H101.602V31.7412H125.235V51.4332H93.7241Z" fill="#E04462"/>
<path d="M141.043 51.4332V27.7997H129.229V19.9218H160.74V27.7997H148.926V51.4332H141.048H141.043Z" fill="#E04462"/>
<path d="M201.08 51.4332V43.5554H224.713V39.619H201.08V19.927H232.591V27.8049H208.958V31.7412H232.591V51.4332H201.08Z" fill="#E04462"/>
<path d="M236.58 51.4332V19.9218H244.457V31.736H260.213V19.9218H268.091V51.4332H260.213V39.619H244.457V51.4332H236.58Z" fill="#E04462"/>
<path d="M164.729 19.9218V27.7997H188.362V31.736H164.729V51.428H196.24V19.9166H164.729V19.9218ZM188.362 43.5554H172.606V39.619H188.362V43.5554Z" fill="#E04462"/>
<path d="M308.654 51.4332V19.9218H316.532V43.5554H320.468V35.6775H328.346V43.5554H332.282V19.9218H340.16V51.4332H308.649H308.654Z" fill="#F9B035"/>
<path d="M392.319 51.4332V43.5554L380.505 31.7412V19.927H388.383V27.8049L396.26 35.6827L404.138 27.8049V19.927H412.016V31.7412L400.202 43.5554V51.4332H392.324H392.319Z" fill="#F9B035"/>
<path d="M272.297 19.9218V27.7997H295.931V31.736H272.297V51.428H303.809V19.9166H272.297V19.9218ZM295.931 43.5554H280.175V39.619H295.931V43.5554Z" fill="#F9B035"/>
<path d="M345.005 19.9218V27.7997H368.639V31.736H345.005V51.428H376.517V19.9166H345.005V19.9218ZM368.639 43.5554H352.883V39.619H368.639V43.5554Z" fill="#F9B035"/>
<path d="M421.447 22.9909C421.447 24.7306 420.065 26.0964 418.289 26.0964C416.513 26.0964 415.148 24.7306 415.148 23.0117C415.148 21.2928 416.513 19.927 418.305 19.927C420.097 19.927 421.447 21.2564 421.447 22.9961V22.9909ZM421.109 22.9909C421.109 21.433 419.915 20.2438 418.305 20.2438C416.695 20.2438 415.475 21.459 415.475 23.0065C415.475 24.554 416.69 25.7692 418.284 25.7692C419.878 25.7692 421.104 24.5436 421.104 22.9909H421.109ZM419.084 23.5154L419.925 24.7721H419.442L418.668 23.5933C418.596 23.6037 418.533 23.6037 418.466 23.6037H417.536V24.7773H417.074V21.2461H418.466C419.349 21.2461 419.894 21.703 419.894 22.4197C419.894 22.9598 419.598 23.344 419.089 23.5206L419.084 23.5154ZM419.432 22.4145C419.432 21.916 419.068 21.6303 418.435 21.6303H417.526V23.2194H418.435C419.068 23.2194 419.432 22.9234 419.432 22.4145Z" fill="#E04462"/>
<defs>
<linearGradient id="paint0_linear_4067_1061" x1="37.0472" y1="47.1697" x2="104.079" y2="47.1697" gradientUnits="userSpaceOnUse">
<stop offset="0.56" stop-color="#EFEFEF" stop-opacity="0.61"/>
<stop offset="0.79" stop-color="white" stop-opacity="0"/>
</linearGradient>
</defs>
</svg>
