<svg width="100" height="54" viewBox="0 0 100 54" fill="none" xmlns="http://www.w3.org/2000/svg">
<g clip-path="url(#clip0_2807_5404)">
<g style="mix-blend-mode:multiply" opacity="0.9">
<path d="M49.2743 51.4256L79.4897 44.1652L85.5992 38.6494L98.0451 24.2376L85.5992 19.9851L76.2214 16.981V40.6797C76.2214 41.4242 75.7491 42.0897 75.0425 42.3416L49.2705 51.4256H49.2743Z" fill="#DFDFDF"/>
</g>
<path d="M76.2214 9.52124L49.2705 19.0188V27.7456L64.6861 22.3125C65.7101 21.9515 66.8322 22.4855 67.1949 23.5044C67.5577 24.5233 67.0211 25.64 66.001 26.001L49.2705 31.8965V51.4256L75.0237 42.3491C75.7415 42.0972 76.2214 41.4204 76.2214 40.6647V9.52124ZM66.0048 36.8032L61.4594 38.405C61.2441 38.4802 61.0211 38.5178 60.802 38.5178C59.9934 38.5178 59.234 38.0177 58.9506 37.2131C58.5879 36.1941 59.1244 35.0774 60.1446 34.7165L64.6899 33.1148C65.7138 32.7538 66.836 33.2877 67.1987 34.3066C67.5614 35.3256 67.0249 36.4423 66.0048 36.8032Z" fill="#F9B035"/>
<path d="M32.487 25.9822C31.429 25.6099 30.8925 24.4293 31.327 23.3878C31.7351 22.4103 32.8988 21.9779 33.9001 22.3313L49.2703 27.7493V19.0226L22.3232 9.52124V27.7869C22.3232 28.5427 22.8031 29.2195 23.521 29.4714L39.0159 34.9308C40.0096 35.2805 40.6293 36.3332 40.3384 37.3409C40.089 38.2094 39.2955 38.7622 38.4492 38.7622C38.23 38.7622 38.0109 38.7246 37.7918 38.6494L24.7225 34.0435C23.555 33.6299 22.327 34.4946 22.327 35.7279V40.6609C22.327 41.4167 22.8069 42.0934 23.5248 42.3454L49.2779 51.4218V31.8928L32.4945 25.9784L32.487 25.9822Z" fill="#E04462"/>
<path d="M64.9735 13.4918L76.2254 9.52131L49.932 0.155339C49.5617 0.0237413 49.1574 0.0237413 48.7871 0.155339C47.238 0.704287 42.7569 2.29097 37.9131 4.0055L64.9735 13.4955V13.4918Z" fill="#ECCACF"/>
<path d="M37.9089 4.00171C31.8824 6.13734 22.3799 9.50248 22.3232 9.52127L49.2741 19.0188L64.9731 13.488L37.9089 4.00171Z" fill="#ECCACF"/>
<path d="M33.915 5.4192L37.9087 4.00171L64.973 13.4918L60.9717 14.9017L33.915 5.4192Z" fill="#E04462"/>
<path d="M60.9717 14.9017L64.9729 13.4917V18.3194L60.9717 19.7332V14.9017Z" fill="#E04462"/>
</g>
<defs>
<clipPath id="clip0_2807_5404">
<rect width="99" height="53" fill="white" transform="translate(0.5 0.0537109)"/>
</clipPath>
</defs>
</svg>
