<svg width="273" height="54" viewBox="0 0 273 54" fill="none" xmlns="http://www.w3.org/2000/svg">
<g clip-path="url(#clip0_3979_3483)">
<path opacity="0.3" d="M23.9946 45.9807L50.896 39.4849L56.3354 34.55L67.4162 21.6561L56.3354 17.8515L47.9861 15.1637V36.3666C47.9861 37.0326 47.5657 37.628 46.9366 37.8534L23.9912 45.9807H23.9946Z" fill="url(#paint0_linear_3979_3483)"/>
<path d="M47.9861 8.48975L23.9912 16.987V24.7947L37.7161 19.9338C38.6277 19.6109 39.6268 20.0886 39.9497 21.0002C40.2726 21.9118 39.795 22.9109 38.8867 23.2339L23.9912 28.5085V45.9808L46.9198 37.8602C47.5589 37.6349 47.9861 37.0294 47.9861 36.3532V8.48975ZM38.8867 32.8984L34.8399 34.3315C34.6482 34.3988 34.4497 34.4324 34.2546 34.4324C33.5347 34.4324 32.8585 33.985 32.6062 33.2651C32.2833 32.3535 32.761 31.3544 33.6692 31.0315L37.7161 29.5984C38.6277 29.2755 39.6268 29.7532 39.9497 30.6648C40.2726 31.5764 39.795 32.5755 38.8867 32.8984Z" fill="#F9B035"/>
<path d="M9.04898 23.217C8.10708 22.884 7.6294 21.8277 8.01625 20.8959C8.37956 20.0213 9.41565 19.6345 10.3071 19.9507L23.9916 24.7981V16.9904L0 8.48975V24.8317C0 25.5079 0.42722 26.1134 1.06637 26.3388L14.8619 31.2232C15.7466 31.5361 16.2983 32.478 16.0392 33.3795C15.8172 34.1566 15.1108 34.6511 14.3573 34.6511C14.1622 34.6511 13.967 34.6174 13.7719 34.5501L2.1361 30.4293C1.09664 30.0593 0.00336393 30.833 0.00336393 31.9364V36.3498C0.00336393 37.026 0.430583 37.6315 1.06973 37.8569L23.9983 45.9774V28.5052L9.05571 23.2137L9.04898 23.217Z" fill="#E04462"/>
<path d="M37.9718 12.042L47.9896 8.48971L24.5766 0.110154C24.247 -0.00758383 23.887 -0.00758383 23.5574 0.110154C22.1782 0.601288 18.1885 2.02087 13.876 3.55482L37.9685 12.0454L37.9718 12.042Z" fill="#EFECEA"/>
<path d="M13.8762 3.55127C8.51075 5.46198 0.050459 8.4727 0 8.48952L23.9949 16.9868L37.9721 12.0385L13.8762 3.55127Z" fill="#EFECEA"/>
<path opacity="0.7" d="M10.3203 4.81947L13.876 3.55127L37.9718 12.0418L34.4061 13.3033L10.3203 4.81947Z" fill="#E04462"/>
<path opacity="0.7" d="M34.4062 13.3033L37.972 12.0419V16.3612L34.4062 17.626V13.3033Z" fill="#E04462"/>
<path d="M60.709 33.3354V28.2323H76.0182V25.6824H60.709V12.9264H81.1213V18.0295H65.8121V20.5793H81.1213V33.3354H60.709Z" fill="#E04462"/>
<path d="M91.361 33.3357V18.0264H83.708V12.9233H104.12V18.0264H96.4674V33.3357H91.3643H91.361Z" fill="#E04462"/>
<path d="M130.252 33.3357V28.2327H145.561V25.6828H130.252V12.9268H150.664V18.0298H135.355V20.5797H150.664V33.3357H130.252Z" fill="#E04462"/>
<path d="M153.247 33.3357V12.9233H158.35V20.5763H168.556V12.9233H173.659V33.3357H168.556V25.6827H158.35V33.3357H153.247Z" fill="#E04462"/>
<path d="M106.701 12.9234V18.0265H122.01V20.5764H106.701V33.3324H127.114V12.92H106.701V12.9234ZM122.01 28.2327H111.804V25.6828H122.01V28.2327Z" fill="#E04462"/>
<path d="M199.933 33.3357V12.9233H205.036V28.2326H207.586V23.1295H212.689V28.2326H215.239V12.9233H220.342V33.3357H199.93H199.933Z" fill="#F9B035"/>
<path d="M254.131 33.3357V28.2327L246.479 20.5797V12.9268H251.582V18.0298L256.685 23.1329L261.788 18.0298V12.9268H266.891V20.5797L259.238 28.2327V33.3357H254.135H254.131Z" fill="#F9B035"/>
<path d="M176.385 12.9234V18.0265H191.694V20.5764H176.385V33.3324H196.797V12.92H176.385V12.9234ZM191.694 28.2327H181.488V25.6828H191.694V28.2327Z" fill="#F9B035"/>
<path d="M223.483 12.9234V18.0265H238.793V20.5764H223.483V33.3324H243.896V12.92H223.483V12.9234ZM238.789 28.2327H228.583V25.6828H238.789V28.2327Z" fill="#F9B035"/>
<path d="M272.999 14.9115C272.999 16.0384 272.105 16.9231 270.954 16.9231C269.804 16.9231 268.919 16.0384 268.919 14.9249C268.919 13.8115 269.804 12.9268 270.964 12.9268C272.125 12.9268 272.999 13.7879 272.999 14.9148V14.9115ZM272.777 14.9115C272.777 13.9023 272.004 13.132 270.961 13.132C269.918 13.132 269.128 13.9191 269.128 14.9216C269.128 15.924 269.915 16.7112 270.947 16.7112C271.98 16.7112 272.774 15.9173 272.774 14.9115H272.777ZM271.465 15.2512L272.01 16.0653H271.698L271.196 15.3017C271.149 15.3084 271.109 15.3084 271.065 15.3084H270.463V16.0687H270.164V13.7812H271.065C271.637 13.7812 271.99 14.0772 271.99 14.5414C271.99 14.8913 271.798 15.1402 271.469 15.2546L271.465 15.2512ZM271.691 14.5381C271.691 14.2151 271.455 14.0301 271.045 14.0301H270.456V15.0595H271.045C271.455 15.0595 271.691 14.8677 271.691 14.5381Z" fill="#E04462"/>
</g>
<path d="M63.4725 50.1205C63.0225 50.1205 62.6025 50.0643 62.2125 49.9518C61.8225 49.8318 61.4963 49.6668 61.2338 49.4568L61.56 48.6918C61.8375 48.8868 62.1413 49.0368 62.4713 49.1418C62.8088 49.2468 63.1463 49.2993 63.4838 49.2993C63.8813 49.2993 64.1813 49.228 64.3838 49.0855C64.5863 48.943 64.6875 48.7518 64.6875 48.5118C64.6875 48.3168 64.62 48.1668 64.485 48.0618C64.35 47.9493 64.1475 47.863 63.8775 47.803L62.8088 47.5893C61.8638 47.3943 61.3913 46.9068 61.3913 46.1268C61.3913 45.6093 61.5975 45.1968 62.01 44.8893C62.4225 44.5818 62.9625 44.428 63.63 44.428C64.0125 44.428 64.3763 44.4843 64.7213 44.5968C65.0738 44.7093 65.3663 44.878 65.5988 45.103L65.2725 45.868C65.0475 45.673 64.7888 45.523 64.4963 45.418C64.2038 45.313 63.915 45.2605 63.63 45.2605C63.24 45.2605 62.9438 45.3355 62.7413 45.4855C62.5388 45.628 62.4375 45.823 62.4375 46.0705C62.4375 46.4455 62.685 46.6855 63.18 46.7905L64.2488 47.0043C64.7363 47.1018 65.1038 47.2668 65.3513 47.4993C65.6063 47.7318 65.7338 48.0468 65.7338 48.4443C65.7338 48.9693 65.5275 49.3818 65.115 49.6818C64.7025 49.9743 64.155 50.1205 63.4725 50.1205ZM69.283 50.1205C68.593 50.1205 68.0793 49.9443 67.7418 49.5918C67.4043 49.2393 67.2355 48.7293 67.2355 48.0618V45.4068H66.1668V44.5293H67.2355V42.8755H68.3718V44.5293H70.0705V45.4068H68.3718V47.9718C68.3718 48.3693 68.4543 48.6693 68.6193 48.8718C68.7918 49.0743 69.0693 49.1755 69.4518 49.1755C69.5718 49.1755 69.688 49.1643 69.8005 49.1418C69.913 49.1118 70.0255 49.078 70.138 49.0405L70.318 49.8955C70.2055 49.963 70.048 50.0155 69.8455 50.053C69.6505 50.098 69.463 50.1205 69.283 50.1205ZM73.382 50.1205C72.827 50.1205 72.347 50.0043 71.942 49.7718C71.537 49.5393 71.222 49.213 70.997 48.793C70.7795 48.3655 70.6707 47.8593 70.6707 47.2743C70.6707 46.6893 70.7795 46.1868 70.997 45.7668C71.222 45.3393 71.537 45.0093 71.942 44.7768C72.347 44.5443 72.827 44.428 73.382 44.428C73.922 44.428 74.3945 44.5443 74.7995 44.7768C75.2045 45.0093 75.5195 45.3393 75.7445 45.7668C75.9695 46.1868 76.082 46.6893 76.082 47.2743C76.082 47.8593 75.9695 48.3655 75.7445 48.793C75.5195 49.213 75.2045 49.5393 74.7995 49.7718C74.3945 50.0043 73.922 50.1205 73.382 50.1205ZM73.382 49.243C73.847 49.243 74.222 49.0743 74.507 48.7368C74.792 48.3993 74.9345 47.9118 74.9345 47.2743C74.9345 46.6368 74.792 46.153 74.507 45.823C74.222 45.4855 73.847 45.3168 73.382 45.3168C72.9095 45.3168 72.5307 45.4855 72.2457 45.823C71.9607 46.153 71.8182 46.6368 71.8182 47.2743C71.8182 47.9118 71.9607 48.3993 72.2457 48.7368C72.5307 49.0743 72.9095 49.243 73.382 49.243ZM77.3581 50.0193V44.5293H78.4606V45.508C78.7456 44.8555 79.3381 44.4918 80.2381 44.4168L80.6093 44.3943L80.6881 45.3618L80.0018 45.4293C79.0043 45.5268 78.5056 46.0405 78.5056 46.9705V50.0193H77.3581ZM84.0542 50.1205C83.1542 50.1205 82.4454 49.8693 81.9279 49.3668C81.4104 48.8568 81.1517 48.163 81.1517 47.2855C81.1517 46.723 81.2642 46.228 81.4892 45.8005C81.7217 45.3655 82.0404 45.028 82.4454 44.788C82.8504 44.548 83.3154 44.428 83.8404 44.428C84.5979 44.428 85.1942 44.6718 85.6292 45.1593C86.0642 45.6393 86.2817 46.303 86.2817 47.1505V47.533H82.2542C82.3367 48.673 82.9404 49.243 84.0654 49.243C84.3804 49.243 84.6879 49.1943 84.9879 49.0968C85.2954 48.9993 85.5842 48.838 85.8542 48.613L86.1917 49.4005C85.9442 49.6255 85.6254 49.8018 85.2354 49.9293C84.8454 50.0568 84.4517 50.1205 84.0542 50.1205ZM83.8854 45.2268C83.4129 45.2268 83.0379 45.373 82.7604 45.6655C82.4829 45.958 82.3142 46.348 82.2542 46.8355H85.3254C85.3029 46.3255 85.1679 45.9318 84.9204 45.6543C84.6729 45.3693 84.3279 45.2268 83.8854 45.2268ZM92.3995 50.1205C91.9495 50.1205 91.5295 50.0643 91.1395 49.9518C90.7495 49.8318 90.4233 49.6668 90.1608 49.4568L90.487 48.6918C90.7645 48.8868 91.0683 49.0368 91.3983 49.1418C91.7358 49.2468 92.0733 49.2993 92.4108 49.2993C92.8083 49.2993 93.1083 49.228 93.3108 49.0855C93.5133 48.943 93.6145 48.7518 93.6145 48.5118C93.6145 48.3168 93.547 48.1668 93.412 48.0618C93.277 47.9493 93.0745 47.863 92.8045 47.803L91.7358 47.5893C90.7908 47.3943 90.3183 46.9068 90.3183 46.1268C90.3183 45.6093 90.5245 45.1968 90.937 44.8893C91.3495 44.5818 91.8895 44.428 92.557 44.428C92.9395 44.428 93.3033 44.4843 93.6483 44.5968C94.0008 44.7093 94.2933 44.878 94.5258 45.103L94.1995 45.868C93.9745 45.673 93.7158 45.523 93.4233 45.418C93.1308 45.313 92.842 45.2605 92.557 45.2605C92.167 45.2605 91.8708 45.3355 91.6683 45.4855C91.4658 45.628 91.3645 45.823 91.3645 46.0705C91.3645 46.4455 91.612 46.6855 92.107 46.7905L93.1758 47.0043C93.6633 47.1018 94.0308 47.2668 94.2783 47.4993C94.5333 47.7318 94.6608 48.0468 94.6608 48.4443C94.6608 48.9693 94.4545 49.3818 94.042 49.6818C93.6295 49.9743 93.082 50.1205 92.3995 50.1205ZM95.9475 50.0193V44.5293H97.05V45.418C97.215 45.103 97.4437 44.8593 97.7362 44.6868C98.0287 44.5143 98.37 44.428 98.76 44.428C99.6 44.428 100.144 44.7955 100.391 45.5305C100.564 45.1855 100.811 44.9155 101.134 44.7205C101.456 44.5255 101.824 44.428 102.236 44.428C103.466 44.428 104.081 45.163 104.081 46.633V50.0193H102.945V46.6893C102.945 46.2243 102.862 45.883 102.697 45.6655C102.54 45.448 102.277 45.3393 101.91 45.3393C101.497 45.3393 101.171 45.4855 100.931 45.778C100.691 46.063 100.571 46.453 100.571 46.948V50.0193H99.435V46.6893C99.435 46.2243 99.3562 45.883 99.1987 45.6655C99.0412 45.448 98.7787 45.3393 98.4112 45.3393C97.9987 45.3393 97.6725 45.4855 97.4325 45.778C97.2 46.063 97.0837 46.453 97.0837 46.948V50.0193H95.9475ZM107.425 50.1205C107.042 50.1205 106.701 50.0455 106.401 49.8955C106.101 49.7455 105.861 49.543 105.681 49.288C105.509 49.033 105.422 48.7443 105.422 48.4218C105.422 48.0168 105.524 47.698 105.726 47.4655C105.936 47.233 106.277 47.0643 106.75 46.9593C107.23 46.8543 107.875 46.8018 108.685 46.8018H109.067V46.5093C109.067 46.0818 108.977 45.7743 108.797 45.5868C108.617 45.3993 108.321 45.3055 107.909 45.3055C107.594 45.3055 107.279 45.3543 106.964 45.4518C106.649 45.5418 106.326 45.688 105.996 45.8905L105.647 45.0918C105.932 44.8893 106.289 44.728 106.716 44.608C107.144 44.488 107.552 44.428 107.942 44.428C108.692 44.428 109.247 44.608 109.607 44.968C109.967 45.3205 110.147 45.8755 110.147 46.633V50.0193H109.079V49.108C108.944 49.423 108.734 49.6705 108.449 49.8505C108.164 50.0305 107.822 50.1205 107.425 50.1205ZM107.65 49.3105C108.055 49.3105 108.392 49.168 108.662 48.883C108.932 48.598 109.067 48.238 109.067 47.803V47.4993H108.696C108.149 47.4993 107.717 47.5255 107.402 47.578C107.095 47.6305 106.874 47.7205 106.739 47.848C106.611 47.968 106.547 48.1368 106.547 48.3543C106.547 48.6393 106.645 48.8718 106.84 49.0518C107.035 49.2243 107.305 49.3105 107.65 49.3105ZM111.712 50.0193V44.5293H112.815V45.508C113.1 44.8555 113.692 44.4918 114.592 44.4168L114.964 44.3943L115.042 45.3618L114.356 45.4293C113.359 45.5268 112.86 46.0405 112.86 46.9705V50.0193H111.712ZM118.557 50.1205C117.867 50.1205 117.353 49.9443 117.015 49.5918C116.678 49.2393 116.509 48.7293 116.509 48.0618V45.4068H115.44V44.5293H116.509V42.8755H117.645V44.5293H119.344V45.4068H117.645V47.9718C117.645 48.3693 117.728 48.6693 117.893 48.8718C118.065 49.0743 118.343 49.1755 118.725 49.1755C118.845 49.1755 118.962 49.1643 119.074 49.1418C119.187 49.1118 119.299 49.078 119.412 49.0405L119.592 49.8955C119.479 49.963 119.322 50.0155 119.119 50.053C118.924 50.098 118.737 50.1205 118.557 50.1205ZM120.94 51.403L120.445 51.0205C120.618 50.833 120.745 50.6605 120.828 50.503C120.91 50.3455 120.963 50.1843 120.985 50.0193H120.366V48.6805H121.705V49.5918C121.705 49.9368 121.649 50.2518 121.536 50.5368C121.424 50.8293 121.225 51.118 120.94 51.403ZM127.915 50.1205C127.315 50.1205 126.865 49.9518 126.565 49.6143C126.273 49.2768 126.126 48.7818 126.126 48.1293V42.088H127.263V48.0618C127.263 48.8043 127.566 49.1755 128.174 49.1755C128.264 49.1755 128.346 49.1718 128.421 49.1643C128.504 49.1568 128.586 49.1418 128.669 49.1193L128.646 50.0305C128.391 50.0905 128.148 50.1205 127.915 50.1205ZM129.464 43.258V42.0768H130.791V43.258H129.464ZM129.565 50.0193V44.5293H130.701V50.0193H129.565ZM133.909 50.0193L131.547 44.5293H132.773L134.449 48.703L136.171 44.5293H137.329L134.933 50.0193H133.909ZM140.623 50.1205C139.723 50.1205 139.014 49.8693 138.497 49.3668C137.979 48.8568 137.72 48.163 137.72 47.2855C137.72 46.723 137.833 46.228 138.058 45.8005C138.29 45.3655 138.609 45.028 139.014 44.788C139.419 44.548 139.884 44.428 140.409 44.428C141.167 44.428 141.763 44.6718 142.198 45.1593C142.633 45.6393 142.85 46.303 142.85 47.1505V47.533H138.823C138.905 48.673 139.509 49.243 140.634 49.243C140.949 49.243 141.257 49.1943 141.557 49.0968C141.864 48.9993 142.153 48.838 142.423 48.613L142.76 49.4005C142.513 49.6255 142.194 49.8018 141.804 49.9293C141.414 50.0568 141.02 50.1205 140.623 50.1205ZM140.454 45.2268C139.982 45.2268 139.607 45.373 139.329 45.6655C139.052 45.958 138.883 46.348 138.823 46.8355H141.894C141.872 46.3255 141.737 45.9318 141.489 45.6543C141.242 45.3693 140.897 45.2268 140.454 45.2268ZM148.833 50.1205C148.233 50.1205 147.783 49.9518 147.483 49.6143C147.191 49.2768 147.044 48.7818 147.044 48.1293V42.088H148.181V48.0618C148.181 48.8043 148.484 49.1755 149.092 49.1755C149.182 49.1755 149.264 49.1718 149.339 49.1643C149.422 49.1568 149.504 49.1418 149.587 49.1193L149.564 50.0305C149.309 50.0905 149.066 50.1205 148.833 50.1205ZM150.382 43.258V42.0768H151.709V43.258H150.382ZM150.483 50.0193V44.5293H151.619V50.0193H150.483ZM155.705 52.1455C155.21 52.1455 154.749 52.0855 154.321 51.9655C153.894 51.853 153.515 51.673 153.185 51.4255L153.534 50.6155C153.864 50.8405 154.201 51.0055 154.546 51.1105C154.891 51.2155 155.251 51.268 155.626 51.268C156.676 51.268 157.201 50.743 157.201 49.693V48.8268C157.044 49.1568 156.796 49.4155 156.459 49.603C156.129 49.7905 155.757 49.8843 155.345 49.8843C154.85 49.8843 154.419 49.7718 154.051 49.5468C153.684 49.3143 153.399 48.9955 153.196 48.5905C152.994 48.178 152.892 47.698 152.892 47.1505C152.892 46.6105 152.994 46.138 153.196 45.733C153.399 45.3205 153.684 45.0018 154.051 44.7768C154.419 44.5443 154.85 44.428 155.345 44.428C155.765 44.428 156.14 44.5218 156.47 44.7093C156.8 44.8968 157.044 45.1555 157.201 45.4855V44.5293H158.304V49.558C158.304 50.4205 158.082 51.0655 157.64 51.493C157.197 51.928 156.552 52.1455 155.705 52.1455ZM155.615 48.9955C156.095 48.9955 156.477 48.8305 156.762 48.5005C157.047 48.1705 157.19 47.7205 157.19 47.1505C157.19 46.5805 157.047 46.1343 156.762 45.8118C156.477 45.4818 156.095 45.3168 155.615 45.3168C155.135 45.3168 154.752 45.4818 154.467 45.8118C154.182 46.1343 154.04 46.5805 154.04 47.1505C154.04 47.7205 154.182 48.1705 154.467 48.5005C154.752 48.8305 155.135 48.9955 155.615 48.9955ZM159.898 50.0193V42.088H161.035V45.3843C161.222 45.0693 161.473 44.833 161.788 44.6755C162.111 44.5105 162.471 44.428 162.868 44.428C164.166 44.428 164.815 45.163 164.815 46.633V50.0193H163.678V46.7005C163.678 46.228 163.585 45.883 163.397 45.6655C163.217 45.448 162.932 45.3393 162.542 45.3393C162.085 45.3393 161.717 45.4855 161.44 45.778C161.17 46.063 161.035 46.4418 161.035 46.9143V50.0193H159.898ZM168.72 50.1205C168.03 50.1205 167.517 49.9443 167.179 49.5918C166.842 49.2393 166.673 48.7293 166.673 48.0618V45.4068H165.604V44.5293H166.673V42.8755H167.809V44.5293H169.508V45.4068H167.809V47.9718C167.809 48.3693 167.892 48.6693 168.057 48.8718C168.229 49.0743 168.507 49.1755 168.889 49.1755C169.009 49.1755 169.125 49.1643 169.238 49.1418C169.35 49.1118 169.463 49.078 169.575 49.0405L169.755 49.8955C169.643 49.963 169.485 50.0155 169.283 50.053C169.088 50.098 168.9 50.1205 168.72 50.1205Z" fill="#103646"/>
<defs>
<linearGradient id="paint0_linear_3979_3483" x1="2.49951" y1="36" x2="54.9995" y2="31" gradientUnits="userSpaceOnUse">
<stop stop-color="#616870"/>
<stop offset="1" stop-color="#616870" stop-opacity="0"/>
</linearGradient>
<clipPath id="clip0_3979_3483">
<rect width="273" height="45.9614" fill="white" transform="translate(0 0.0192871)"/>
</clipPath>
</defs>
</svg>
