<svg width="234" height="184" viewBox="0 0 234 184" fill="none" xmlns="http://www.w3.org/2000/svg">
<path opacity="0.5" d="M0.5 46.0991C0.5 20.6393 21.1393 0 46.5991 0H187.041C212.5 0 233.14 20.6393 233.14 46.0991V156.523H0.5V46.0991Z" fill="#FFEDEF"/>
<g clip-path="url(#clip0_3124_18041)">
<path d="M169.995 181.96H13.7637V77.6348H169.995" fill="white"/>
<path d="M169.996 181.96C184.992 175.498 199.985 169.033 214.982 162.571C214.964 151.147 214.945 139.726 214.927 128.302V62.873C199.949 67.7924 184.971 72.7154 169.992 77.6348" fill="white"/>
<path d="M169.334 183.621L168.334 181.299L213.717 161.74L213.667 128.305V64.6173L169.19 79.2309L168.403 76.829L214.537 61.6736C214.923 61.5472 215.346 61.6122 215.675 61.8506C216.003 62.089 216.198 62.4682 216.198 62.8728V128.302L216.253 162.568C216.253 163.073 215.953 163.532 215.491 163.731L169.342 183.621H169.334Z" fill="#103646"/>
<path d="M169.996 183.224H12.5V76.3706H169.996V78.8989H15.0283V180.696H169.996V183.224Z" fill="#103646"/>
<path d="M169.995 77.6343C184.974 72.7149 199.952 67.7919 214.931 62.8726H58.8474L13.9121 77.6343H169.995Z" fill="white"/>
<path d="M169.995 78.8987H13.912C13.2908 78.8987 12.7635 78.4472 12.6623 77.8332C12.5648 77.2192 12.926 76.6268 13.5147 76.4318L58.4536 61.6737C58.58 61.6304 58.7136 61.6123 58.8473 61.6123H214.931C215.552 61.6123 216.079 62.0638 216.18 62.6778C216.278 63.2918 215.917 63.8842 215.328 64.0792L170.393 78.8409C170.266 78.8843 170.133 78.9023 169.999 78.9023L169.995 78.8987ZM21.8112 76.3704H169.793L207.031 64.137H59.0496L21.8112 76.3704Z" fill="#103646"/>
<path d="M125.92 140.256V172.25H157.914V140.256H125.92ZM156.671 171.004H127.166V141.499H156.671V171.004Z" fill="#103646"/>
<path d="M146.348 157.023C146.427 158.457 144.491 159.648 142.172 159.721C139.677 159.8 137.408 158.569 137.484 157.023V145.277H146.348V157.023Z" fill="#103646"/>
<path d="M142.4 158.157H141.436V167.002H142.4V158.157Z" fill="#103646"/>
<path d="M141.916 168.367C144.365 168.367 146.351 167.99 146.351 167.526C146.351 167.061 144.365 166.684 141.916 166.684C139.466 166.684 137.48 167.061 137.48 167.526C137.48 167.99 139.466 168.367 141.916 168.367Z" fill="#103646"/>
<path d="M88.2969 140.256V172.25H120.291V140.256H88.2969ZM119.045 171.004H89.5394V141.499H119.045V171.004Z" fill="#103646"/>
<path d="M100.339 148.217H97.8145V163.881H100.339V148.217Z" fill="#103646"/>
<path d="M99.0424 146.291C98.0347 147.58 97.0233 148.87 96.0156 150.159H102.138C101.105 148.87 100.075 147.58 99.0424 146.291Z" fill="#103646"/>
<path d="M110.773 148.217H108.248V163.881H110.773V148.217Z" fill="#103646"/>
<path d="M109.476 146.292C108.468 147.581 107.457 148.87 106.449 150.16H112.571C111.538 148.87 110.509 147.581 109.476 146.292Z" fill="#103646"/>
<path d="M115.187 164.828H93.4004V166.558H115.187V164.828Z" fill="#103646"/>
<path d="M50.6738 140.256V172.25H82.6678V140.256H50.6738ZM81.4217 171.004H51.9163V141.499H81.4217V171.004Z" fill="#103646"/>
<path d="M67.2258 164.351C67.1572 165.543 68.1505 166.482 69.1907 166.417C70.1298 166.356 70.9425 165.482 70.9099 164.413C71.282 164.402 71.6504 164.391 72.0224 164.38C72.1091 166.067 70.7799 167.479 69.1943 167.526C67.5365 167.573 66.0881 166.114 66.1929 164.351V150.377H67.2331V164.351H67.2258Z" fill="#103646"/>
<path d="M77.947 152.324C77.752 152.62 76.7407 154.09 75.137 154.112C73.4864 154.133 72.4389 152.606 72.2547 152.324C72.0344 152.627 70.9292 154.086 69.2605 154C67.776 153.92 66.8116 152.674 66.5624 152.324C66.3818 152.602 65.4427 154.011 63.9366 154.054C62.3402 154.101 61.3288 152.58 61.1627 152.324C60.9676 152.606 59.8191 154.213 58.0745 154.083C56.5864 153.974 55.6365 152.674 55.3945 152.324C56.525 150.944 60.6065 146.292 66.6708 146.292C72.7351 146.292 76.8165 150.94 77.947 152.324Z" fill="#103646"/>
<path d="M84.7117 182.974H82.5445V181.53H84.7117V182.974ZM78.5715 182.974H76.4044V181.53H78.5715V182.974ZM72.4313 182.974H70.2642V181.53H72.4313V182.974ZM66.2911 182.974H64.124V181.53H66.2911V182.974ZM60.8119 182.313H59.3672V180.146H60.8119V182.313ZM89.0315 181.876H87.5867V179.709H89.0315V181.876ZM60.8119 176.173H59.3672V174.006H60.8119V176.173ZM89.0315 175.736H87.5867V173.569H89.0315V175.736ZM89.0315 172.973H86.8643V171.528H89.0315V172.973ZM82.8913 172.973H80.7242V171.528H82.8913V172.973ZM76.7511 172.973H74.584V171.528H76.7511V172.973ZM70.6109 172.973H68.4438V171.528H70.6109V172.973ZM64.4708 172.973H62.3036V171.528H64.4708V172.973Z" fill="#103646"/>
<path d="M114.675 113.508H112.508V112.063H114.675V113.508ZM108.535 113.508H106.368V112.063H108.535V113.508ZM102.395 113.508H100.228V112.063H102.395V113.508ZM96.2548 113.508H94.0877V112.063H96.2548V113.508ZM119.584 112.995H118.139V110.828H119.584V112.995ZM91.3608 112.261H89.916V110.094H91.3608V112.261ZM119.584 106.854H118.139V104.687H119.584V106.854ZM91.3608 106.121H89.916V103.954H91.3608V106.121ZM119.584 100.714H118.139V98.5472H119.584V100.714ZM91.3608 99.9811H89.916V97.814H91.3608V99.9811ZM119.584 94.5741H118.139V92.407H119.584V94.5741ZM91.3608 93.8373H89.916V91.6702H91.3608V93.8373ZM119.584 88.434H118.139V86.2668H119.584V88.434ZM91.3608 87.7008H89.916V85.5336H91.3608V87.7008ZM119.584 82.2938H118.139V80.1267H119.584V82.2938ZM91.3608 81.5606H89.916V79.3935H91.3608V81.5606ZM119.584 78.3569H117.417V76.9121H119.584V78.3569ZM113.444 78.3569H111.277V76.9121H113.444V78.3569ZM107.304 78.3569H105.136V76.9121H107.304V78.3569ZM101.163 78.3569H98.9963V76.9121H101.163V78.3569ZM95.0232 78.3569H92.8561V76.9121H95.0232V78.3569Z" fill="#103646"/>
<path d="M119.585 78.3566H117.417V76.9119H119.585V78.3566ZM113.444 78.3566H111.277V76.9119H113.444V78.3566ZM107.304 78.3566H105.137V76.9119H107.304V78.3566ZM101.164 78.3566H98.997V76.9119H101.164V78.3566ZM95.0239 78.3566H92.8568V77.497L92.5389 77.6271L91.9863 76.2907L93.9873 75.4635L94.5399 76.7999L94.2726 76.9119H95.0203V78.3566H95.0239ZM121.651 77.255L121.094 75.9223L123.095 75.0879L123.652 76.4207L121.651 77.255ZM98.2132 75.2829L97.6606 73.9466L99.6615 73.1194L100.214 74.4558L98.2132 75.2829ZM127.318 74.8893L126.765 73.5565L128.766 72.7221L129.322 74.0549L127.321 74.8893H127.318ZM103.887 72.9352L103.335 71.5988L105.336 70.7717L105.888 72.1081L103.887 72.9352ZM132.985 72.5271L132.432 71.1943L134.433 70.36L134.989 71.6928L132.988 72.5271H132.985ZM109.558 70.5875L109.005 69.2511L111.006 68.424L111.559 69.7604L109.558 70.5875ZM138.652 70.1649L138.099 68.8322L140.1 67.9978L140.656 69.3306L138.655 70.1649H138.652ZM115.232 68.2398L114.68 66.9034L116.681 66.0763L117.233 67.4127L115.232 68.2398ZM144.319 67.8028L143.766 66.47L145.767 65.6356L146.323 66.9684L144.322 67.8028H144.319ZM120.907 65.8921L120.354 64.5557L122.355 63.7286L122.908 65.065L120.907 65.8921ZM149.986 65.437L149.433 64.1042L150.896 63.4938L150.889 62.1646L153.056 62.1538L153.063 63.5986L151.571 63.6058L151.987 64.6027L149.986 65.437ZM126.335 63.7322L126.328 62.2874L128.495 62.2766L128.502 63.7214L126.335 63.7322ZM132.475 63.7033L132.468 62.2586L134.635 62.2477L134.642 63.6925L132.475 63.7033ZM138.616 63.6708L138.608 62.226L140.775 62.2152L140.783 63.66L138.616 63.6708ZM144.756 63.6419L144.748 62.1972L146.916 62.1863L146.923 63.6311L144.756 63.6419Z" fill="#103646"/>
<path d="M170.718 182.975H169.273V181.295H170.718V182.975ZM170.718 177.322H169.273V175.155H170.718V177.322ZM170.718 171.182H169.273V169.015H170.718V171.182ZM170.718 165.042H169.273V162.875H170.718V165.042ZM170.718 158.902H169.273V156.734H170.718V158.902ZM170.718 152.761H169.273V150.594H170.718V152.761ZM170.718 146.621H169.273V144.454H170.718V146.621ZM170.718 140.481H169.273V138.314H170.718V140.481ZM170.718 134.341H169.273V132.174H170.718V134.341ZM170.718 128.201H169.273V126.034H170.718V128.201ZM170.718 122.06H169.273V119.893H170.718V122.06ZM170.718 115.92H169.273V113.753H170.718V115.92ZM170.718 109.78H169.273V107.613H170.718V109.78ZM170.718 103.64H169.273V101.473H170.718V103.64ZM170.718 97.4998H169.273V95.3326H170.718V97.4998ZM170.718 91.3596H169.273V89.1925H170.718V91.3596ZM170.718 85.2194H169.273V83.0523H170.718V85.2194ZM170.718 79.0792H169.273V76.9121H170.718V79.0792Z" fill="#103646"/>
</g>
<circle cx="202.438" cy="61.6082" r="31.0901" fill="#FFDFA9"/>
<circle cx="202.848" cy="62.0181" r="22.5" fill="#F9B035"/>
<path d="M191.348 60.5181L199.148 67.7181L212.948 54.5181" stroke="white" stroke-width="4.2" stroke-linecap="round" stroke-linejoin="round"/>
<defs>
<clipPath id="clip0_3124_18041">
<rect width="203.745" height="122.013" fill="white" transform="translate(12.5 61.6084)"/>
</clipPath>
</defs>
</svg>
