<svg width="41" height="41" viewBox="0 0 41 41" fill="none" xmlns="http://www.w3.org/2000/svg">
<circle cx="20.5" cy="20.5" r="20.5" fill="#FFD285"/>
<path d="M29.3333 23.5C29.3333 26.725 26.725 29.3333 23.5 29.3333L24.375 27.875" stroke="#E04462" stroke-width="1.25" stroke-linecap="round" stroke-linejoin="round"/>
<path d="M12.667 18.5C12.667 15.275 15.2753 12.6666 18.5003 12.6666L17.6253 14.125" stroke="#E04462" stroke-width="1.25" stroke-linecap="round" stroke-linejoin="round"/>
<path d="M24.95 12.8416L22.95 13.9499C22.5 14.1999 22.125 14.8332 22.125 15.3499V17.4666C22.125 17.9833 22.4917 18.6166 22.95 18.8666L24.95 19.975C25.375 20.2166 26.075 20.2166 26.5083 19.975L28.5083 18.8666C28.9583 18.6166 29.3333 17.9833 29.3333 17.4666V15.3499C29.3333 14.8332 28.9667 14.1999 28.5083 13.9499L26.5083 12.8416C26.0833 12.6083 25.3833 12.6083 24.95 12.8416Z" stroke="#E04462" stroke-width="1.25" stroke-linecap="round" stroke-linejoin="round"/>
<path d="M22.416 14.7085L25.7327 16.6252L29.016 14.7168" stroke="#E04462" stroke-width="1.25" stroke-linecap="round" stroke-linejoin="round"/>
<path d="M25.7334 20.0168V16.6168" stroke="#E04462" stroke-width="1.25" stroke-linecap="round" stroke-linejoin="round"/>
<path d="M15.492 22.0084L13.492 23.1167C13.042 23.3667 12.667 24 12.667 24.5167V26.6334C12.667 27.15 13.0337 27.7834 13.492 28.0334L15.492 29.1417C15.917 29.3834 16.617 29.3834 17.0503 29.1417L19.0503 28.0334C19.5003 27.7834 19.8753 27.15 19.8753 26.6334V24.5167C19.8753 24 19.5087 23.3667 19.0503 23.1167L17.0503 22.0084C16.617 21.775 15.917 21.775 15.492 22.0084Z" stroke="#E04462" stroke-width="1.25" stroke-linecap="round" stroke-linejoin="round"/>
<path d="M12.958 23.8751L16.2663 25.7918L19.558 23.8835" stroke="#E04462" stroke-width="1.25" stroke-linecap="round" stroke-linejoin="round"/>
<path d="M16.2666 29.1836V25.7836" stroke="#E04462" stroke-width="1.25" stroke-linecap="round" stroke-linejoin="round"/>
</svg>
